<svg id="Layer_1" data-name="Layer 1" xmlns="http://www.w3.org/2000/svg" width="481.68" height="180.74" viewBox="0 0 481.68 180.74">
  <defs>
    <style>
      .cls-1 {
        fill: #280d5b;
      }

      .cls-2 {
        fill: #5f8ddc;
      }
    </style>
  </defs>
  <g>
    <g>
      <path class="cls-1" d="M287.15,70.58c-12.32,0-20.84-10.26-20.84-22.58v-.2c0-12.33,8.73-22.4,20.84-22.4,7.18,0,12.83,3.08,18.37,8.11l10.06-11.6c-6.67-6.56-14.78-11.1-28.33-11.1-22.07,0-37.47,16.79-37.47,37.19v.21c0,20.63,15.71,36.95,36.86,36.95,13.85,0,22.06-4.93,29.46-12.83L306,62.13C300.39,67.3,295.36,70.58,287.15,70.58Z"/>
      <path class="cls-1" d="M355.1,11.56,324.31,83.93h16.12L347,67.81h30.39l6.53,16.12h16.53l-30.8-72.37Zm-2.46,42.29,9.55-23.32,9.54,23.32Z"/>
      <rect class="cls-1" x="416.7" y="12.07" width="15.81" height="71.86"/>
    </g>
    <g>
      <polygon class="cls-2" points="267.13 99.47 261.8 99.47 261.8 171.33 309.33 171.33 309.33 166.4 267.13 166.4 267.13 99.47"/>
      <path class="cls-2" d="M357.77,99,324.31,171.3h5.55L339,151.18h42.4l9.13,20.12h5.85L362.9,99Zm-16.52,47.43,19-41.58,18.88,41.58Z"/>
      <path class="cls-2" d="M457.44,134.37c5.85-2.36,12.23-7.29,12.23-17v-.21a15.51,15.51,0,0,0-4.62-11.29c-4-4-10.58-6.36-18.66-6.36H416.7v71.85h31.2c15.51,0,25.77-7.59,25.77-19.62v-.2C473.67,141.56,466.07,136.63,457.44,134.37ZM422,104.4h24.26c11.5,0,18,5.33,18,13.24v.2c0,9.55-7.7,14.78-18.48,14.78H422Zm46.2,47.3c0,9-7.81,14.68-20.13,14.68H422V137.55h24.33c14.16,0,21.87,5.14,21.87,14Z"/>
    </g>
    <g>
      <path class="cls-2" d="M195.84,62.13A28,28,0,0,0,183.48,65L166.13,34.14v-2H127.5a28.07,28.07,0,0,0-56,0H63.24A28.11,28.11,0,0,0,51,10.94c-.75-.5-1.52-.93-2.32-1.4a28,28,0,0,0-13.43-3.4h0a28.12,28.12,0,0,0-15.72,4.8,29.06,29.06,0,0,0-4.16,3.43c-.63.64-1.24,1.31-1.81,2a28.09,28.09,0,0,0,21.69,46h0A28,28,0,0,0,47.11,59.7l4.19,7.47a28.08,28.08,0,0,0,27.6,48.65l16,28.42H31.76v4.3h104a28.15,28.15,0,1,0,15.45-27.26l-4.25-7.55a29.27,29.27,0,0,0,2.55-1.87,24.67,24.67,0,0,0,2-1.82,28.44,28.44,0,0,0,3.43-4.15c.51-.75.94-1.52,1.41-2.32a28,28,0,0,0,3.29-11.25h8.25a28.08,28.08,0,1,0,28-30.25Zm-16.09,5A28.07,28.07,0,0,0,167.82,88H159.6a28.07,28.07,0,0,0-3.29-11.2c-.44-.79-.93-1.56-1.41-2.31A28,28,0,0,0,119.26,65l-4.15-7.37A28,28,0,0,0,127.5,36.4h35ZM99.51,10.45a23.8,23.8,0,1,1-23.83,23.8A23.79,23.79,0,0,1,99.51,10.45ZM50.87,57.6H51A28.1,28.1,0,0,0,63.24,36.4h8.28a28,28,0,0,0,39.86,23.33l4.19,7.47a28.14,28.14,0,0,0-11.91,20.89h-8.3A28,28,0,0,0,55,65ZM43.52,90.2A23.81,23.81,0,1,1,67.33,114h0A23.83,23.83,0,0,1,43.52,90.2Zm144,56.2a23.81,23.81,0,1,1-23.81-23.8h0a23.82,23.82,0,0,1,23.83,23.8Zm-40-22.9a28,28,0,0,0-11.75,20.74H99.86l-17.15-30.5a28.09,28.09,0,0,0,12.65-21.4h8.24a28.06,28.06,0,0,0,8.12,17.73c.65.64,1.31,1.24,2,1.82a28,28,0,0,0,29.42,3.92ZM195.84,114a23.81,23.81,0,1,1,23.8-23.8h0A23.84,23.84,0,0,1,195.84,114Z"/>
      <g>
        <circle class="cls-1" cx="163.72" cy="34.25" r="28.1"/>
        <circle class="cls-1" cx="35.24" cy="146.4" r="28.1"/>
        <circle class="cls-1" cx="99.48" cy="146.4" r="28.1"/>
      </g>
    </g>
  </g>
</svg>
